# xmcd CD database file
#
# Track frame offsets:
#	150
#	27616
#	37666
#	55764
#	96498
#	109355
#	139365
#
# Disc length: 2503 seconds
#
# Revision: 0
# Processed by: cddbd v1.5.1PL2 Copyright (c) Steve Scherf et al.
# Submitted via: CDex 1.51
#
DISCID=6109c507
DTITLE=OZ - the thread
DYEAR=2004
DGENRE=Jazz
TTITLE0=you-as-a-nothin
TTITLE1=the thread
TTITLE2=plus sérieusement
TTITLE3=néo-bop
TTITLE4=plus doucement
TTITLE5=jazz trash
TTITLE6=pièce
EXTD=YEAR: 2004
EXTT0=
EXTT1=
EXTT2=
EXTT3=
EXTT4=
EXTT5=
EXTT6=
PLAYORDER=
